<?xml version="1.0" encoding="UTF-8"?>
<svg id="uuid-412fe65d-e3a7-4092-bca0-8ca1908dc0ee" data-name="레이어 1" xmlns="http://www.w3.org/2000/svg" viewBox="0 0 30.02 30.02">
  <defs>
    <style>
      .uuid-14894cd0-c697-427b-a354-da26803e0eb9 {
        stroke-linecap: round;
      }

      .uuid-14894cd0-c697-427b-a354-da26803e0eb9, .uuid-97a7208a-d07d-4229-bf7b-09625498dcff {
        fill: none;
        stroke: #fff;
        stroke-miterlimit: 10;
      }
    </style>
  </defs>
  <circle class="uuid-97a7208a-d07d-4229-bf7b-09625498dcff" cx="15.01" cy="15.01" r="12.79"/>
  <path class="uuid-14894cd0-c697-427b-a354-da26803e0eb9" d="M25.39,17.87c-.54,1.97-1.62,3.71-3.08,5.05"/>
  <path class="uuid-14894cd0-c697-427b-a354-da26803e0eb9" d="M15.01,4.24c5.95,0,10.77,4.82,10.77,10.77"/>
  <path class="uuid-14894cd0-c697-427b-a354-da26803e0eb9" d="M13.71,14.23s.96-.83,.96-2.62c0-1.31-.58-2.47-1.73-2.47-.89,0-1.54,1.25-1.54,2.47,0,1.77,1.08,2.62,1.08,2.62v5.96c0,.29,.23,.52,.52,.52h.2c.29,0,.52-.23,.52-.52v-5.96Z"/>
  <path class="uuid-14894cd0-c697-427b-a354-da26803e0eb9" d="M18.08,14.23s.96-.83,.96-2.62v-1.46c0-.21-.58-.59-.58-.59l-.54,.59-.54-.59-.47,.59-.56-.59s-.58,.38-.58,.59v1.46c0,1.77,1.08,2.62,1.08,2.62v5.96c0,.29,.23,.52,.52,.52h.2c.29,0,.52-.23,.52-.52v-5.96Z"/>
</svg>