<?xml version="1.0" encoding="UTF-8"?>
<svg id="uuid-bdc9aeac-fd51-437e-9b9e-539688e821c6" data-name="레이어 1" xmlns="http://www.w3.org/2000/svg" viewBox="0 0 30.02 30.02">
  <defs>
    <style>
      .uuid-f904ddcd-8f6b-4dee-bf18-bc6e15c8dd8d {
        stroke-linecap: round;
      }

      .uuid-f904ddcd-8f6b-4dee-bf18-bc6e15c8dd8d, .uuid-7990f765-47ff-4b33-9ca7-17d49f4c9d3d {
        fill: none;
        stroke: #8467fd;
        stroke-miterlimit: 10;
      }
    </style>
  </defs>
  <circle class="uuid-7990f765-47ff-4b33-9ca7-17d49f4c9d3d" cx="15.01" cy="15.11" r="12.79"/>
  <path class="uuid-f904ddcd-8f6b-4dee-bf18-bc6e15c8dd8d" d="M25.39,17.97c-.54,1.97-1.62,3.71-3.08,5.05"/>
  <path class="uuid-f904ddcd-8f6b-4dee-bf18-bc6e15c8dd8d" d="M15.01,4.35c5.95,0,10.77,4.82,10.77,10.77"/>
  <path class="uuid-f904ddcd-8f6b-4dee-bf18-bc6e15c8dd8d" d="M13.71,14.33s.96-.83,.96-2.62c0-1.31-.58-2.47-1.73-2.47-.89,0-1.54,1.25-1.54,2.47,0,1.77,1.08,2.62,1.08,2.62v5.96c0,.29,.23,.52,.52,.52h.2c.29,0,.52-.23,.52-.52v-5.96Z"/>
  <path class="uuid-f904ddcd-8f6b-4dee-bf18-bc6e15c8dd8d" d="M18.08,14.33s.96-.83,.96-2.62v-1.46c0-.21-.58-.59-.58-.59l-.54,.59-.54-.59-.47,.59-.56-.59s-.58,.38-.58,.59v1.46c0,1.77,1.08,2.62,1.08,2.62v5.96c0,.29,.23,.52,.52,.52h.2c.29,0,.52-.23,.52-.52v-5.96Z"/>
</svg>