<?xml version="1.0" encoding="utf-8"?>
<!-- Generator: Adobe Illustrator 26.4.1, SVG Export Plug-In . SVG Version: 6.00 Build 0)  -->
<svg version="1.1" id="레이어_1" xmlns="http://www.w3.org/2000/svg" xmlns:xlink="http://www.w3.org/1999/xlink" x="0px"
	 y="0px" viewBox="0 0 66 12" style="enable-background:new 0 0 66 12;" xml:space="preserve">
<style type="text/css">
	.st0{fill:#FFFFFF;}
</style>
<path class="st0" d="M44.6,0c-0.2,0-0.3,0-0.5,0c-0.6,0.1-1.1,0.4-1.6,0.8l0,0l0,0c-0.5-0.5-1-0.8-1.6-0.8c-0.2,0-0.3,0-0.5,0
	c-0.8,0-1.5,0.3-2.1,0.9c-0.6,0.6-0.9,1.3-0.9,2.1v4.7c0,0.4,0.3,0.7,0.9,0.7c0.5,0,0.9-0.3,0.9-0.7V3c0-0.6,0.4-1.1,1-1.2
	c0.1,0,0.2,0,0.3,0c0.7,0,1.2,0.6,1.2,1.2v4.7c0,0.4,0.3,0.7,0.9,0.7h0.1c0.5,0,0.9-0.3,0.9-0.7V3c0-0.6,0.4-1.1,1-1.2
	c0.1,0,0.2,0,0.3,0c0.7,0,1.2,0.6,1.2,1.2v4.7c0,0.4,0.3,0.7,0.9,0.7s0.9-0.3,0.9-0.7V3C47.6,1.3,46.3,0,44.6,0z"/>
<path class="st0" d="M52.7,0c-2.3,0-4.2,1.9-4.2,4.2s1.9,4.2,4.2,4.2c2.3,0,4.2-1.9,4.2-4.2C56.9,1.9,55,0,52.7,0z M52.7,6.6
	c-1.4,0-2.5-1.1-2.5-2.5s1.1-2.5,2.5-2.5s2.5,1.1,2.5,2.5C55.2,5.5,54.1,6.6,52.7,6.6z"/>
<path class="st0" d="M32.3,0c-2.3,0-4.2,1.9-4.2,4.2s1.9,4.2,4.2,4.2c2.3,0,4.2-1.9,4.2-4.2C36.5,1.9,34.6,0,32.3,0z M32.3,6.6
	c-1.4,0-2.5-1.1-2.5-2.5s1.1-2.5,2.5-2.5s2.5,1.1,2.5,2.5C34.8,5.5,33.7,6.6,32.3,6.6z"/>
<path class="st0" d="M64.2,0.7c-0.1-0.1-0.1-0.1-0.2-0.1l0,0c-0.2-0.1-0.3-0.2-0.5-0.2l0,0c-0.1,0-0.2-0.1-0.3-0.1
	c-0.1,0-0.2,0-0.3-0.1l-0.1,0c-0.1,0-0.2,0-0.3-0.1c-0.1,0-0.2,0-0.3,0l-0.1,0c-0.1,0-0.2,0-0.3,0c-0.1,0-0.2,0-0.3,0l-0.1,0
	c-0.1,0-0.2,0-0.3,0c-0.1,0-0.2,0-0.3,0.1l-0.1,0c-0.1,0-0.2,0-0.3,0.1c-0.1,0-0.2,0.1-0.3,0.1l0,0c-0.2,0.1-0.3,0.1-0.5,0.2l0,0
	c-0.1,0.1-0.2,0.1-0.2,0.1c-1.1,0.8-1.8,2-1.8,3.4v3.6c0,0.4,0.3,0.7,0.8,0.7c0.5,0,0.8-0.3,0.8-0.7V4.1c0-0.2,0-0.4,0.1-0.6
	C59.7,3,60,2.6,60.4,2.2c0.3-0.2,0.7-0.4,1-0.5c0.2,0,0.3,0,0.5,0c0.2,0,0.3,0,0.5,0c0.5,0.1,0.9,0.3,1.2,0.7c0,0,0,0.1,0.1,0.1
	c0,0,0,0,0,0.1c0,0,0,0.1,0.1,0.1c0,0,0,0,0,0.1c0,0,0,0.1,0.1,0.1c0.3,0.4,0.4,0.9,0.4,1.3v3.6c0,0.4,0.3,0.7,0.8,0.7
	c0.5,0,0.8-0.3,0.8-0.7V4.1C66,2.7,65.3,1.5,64.2,0.7z"/>
<path class="st0" d="M13.6,0c-2.3,0-4.2,1.9-4.2,4.2s1.9,4.2,4.2,4.2s4.2-1.9,4.2-4.2C17.8,1.9,15.9,0,13.6,0z M13.6,6.6
	c-1.4,0-2.5-1.1-2.5-2.5s1.1-2.5,2.5-2.5S16,2.8,16,4.2C16,5.5,14.9,6.6,13.6,6.6z"/>
<path class="st0" d="M8.2,2.7C7.6,1.1,6.1,0,4.3,0H4.2C3.4,0,2.5,0.3,1.8,0.8C0.7,1.5,0,2.8,0,4.2v6.8c0,0.4,0.3,0.7,0.9,0.7
	c0.5,0,0.9-0.3,0.9-0.7V7.5l0.2,0.1c0.7,0.5,1.5,0.7,2.3,0.7c0,0,0.1,0,0.1,0c0.1,0,0.1,0,0.2,0c0.5,0,0.9-0.1,1.3-0.2
	C8,7.2,9,4.9,8.2,2.7z M4.3,6.6c-1.4,0-2.5-1.1-2.5-2.5s1.1-2.5,2.5-2.5s2.5,1.1,2.5,2.5S5.6,6.6,4.3,6.6z"/>
<path class="st0" d="M26.9,2.7C26.3,1.1,24.8,0,23,0H23c-0.9,0-1.7,0.3-2.4,0.8c-1.1,0.8-1.8,2.1-1.8,3.4v6.8c0,0.4,0.3,0.7,0.9,0.7
	c0.5,0,0.9-0.3,0.9-0.7V7.5l0.2,0.1c0.7,0.5,1.5,0.7,2.3,0.7c0,0,0.1,0,0.1,0c0.1,0,0.1,0,0.2,0c0.5,0,0.9-0.1,1.3-0.2
	C26.7,7.2,27.7,4.9,26.9,2.7z M23,6.6c-1.4,0-2.5-1.1-2.5-2.5s1.1-2.5,2.5-2.5c1.4,0,2.5,1.1,2.5,2.5S24.3,6.6,23,6.6z"/>
</svg>
