<svg width="66" height="12" viewBox="0 0 66 12" fill="none" xmlns="http://www.w3.org/2000/svg">
<path d="M44.6387 0C44.4722 0 44.2973 0.0128024 44.1309 0.0426725C43.542 0.140817 42.9873 0.435249 42.5221 0.891834L42.5136 0.900369L42.5051 0.891834C42.04 0.435249 41.4852 0.140817 40.8964 0.0426725C40.7257 0.0128024 40.555 0 40.3886 0C39.5992 0 38.8567 0.307235 38.2934 0.870499C37.7344 1.4295 37.4229 2.17198 37.4229 2.96567V7.62113C37.4229 8.06918 37.7685 8.36788 38.2849 8.36788C38.8012 8.36788 39.1468 8.06918 39.1468 7.62113V2.99981C39.1468 2.39387 39.5565 1.86901 40.1197 1.7538C40.2051 1.73673 40.2947 1.7282 40.38 1.7282C41.0585 1.7282 41.6132 2.28293 41.6132 2.9614V7.61259C41.6132 8.06065 41.9589 8.35935 42.4752 8.35935H42.5307C43.047 8.35935 43.3926 8.05638 43.3926 7.61259V2.99981C43.3926 2.39387 43.8023 1.86901 44.3656 1.7538C44.4509 1.73673 44.5405 1.7282 44.6259 1.7282C45.3043 1.7282 45.8591 2.28293 45.8591 2.9614V7.61259C45.8591 8.06065 46.2047 8.35935 46.721 8.35935C47.2373 8.35935 47.583 8.06065 47.583 7.61259V2.9614C47.6001 1.32708 46.273 0 44.6387 0Z" fill="url(#paint0_linear_8389_13217)"/>
<path d="M52.7249 0C50.4206 0 48.5431 1.87755 48.5431 4.18181C48.5431 6.48607 50.4206 8.36361 52.7249 8.36361C55.0292 8.36361 56.9067 6.48607 56.9067 4.18181C56.9067 1.87328 55.0292 0 52.7249 0ZM52.7249 6.63115C51.3722 6.63115 50.2713 5.53023 50.2713 4.17754C50.2713 2.82485 51.3722 1.72393 52.7249 1.72393C54.0776 1.72393 55.1785 2.82485 55.1785 4.17754C55.1785 5.53449 54.0776 6.63115 52.7249 6.63115Z" fill="url(#paint1_linear_8389_13217)"/>
<path d="M32.3023 0C29.9981 0 28.1205 1.87755 28.1205 4.18181C28.1205 6.48607 29.9981 8.36361 32.3023 8.36361C34.6066 8.36361 36.4841 6.48607 36.4841 4.18181C36.4841 1.87328 34.6066 0 32.3023 0ZM32.3023 6.63115C30.9496 6.63115 29.8487 5.53023 29.8487 4.17754C29.8487 2.82485 30.9496 1.72393 32.3023 1.72393C33.655 1.72393 34.7559 2.82485 34.7559 4.17754C34.7559 5.53449 33.655 6.63115 32.3023 6.63115Z" fill="url(#paint2_linear_8389_13217)"/>
<path d="M64.2121 0.712615C64.1395 0.661409 64.0627 0.614469 63.9774 0.563264L63.9518 0.546196C63.7853 0.448052 63.6189 0.371242 63.4482 0.298701L63.4013 0.281632C63.3074 0.243227 63.2221 0.213358 63.1453 0.192022C63.0642 0.166419 62.9789 0.145084 62.8765 0.119481L62.8167 0.106679C62.7186 0.085343 62.6332 0.0682748 62.5521 0.0554734C62.4668 0.042672 62.3772 0.0298713 62.2705 0.0213371L62.2022 0.017069C62.0956 0.00853469 62.006 0.00426806 61.9206 0.00426806C61.8353 0.00426806 61.7457 0.00853469 61.639 0.017069L61.5707 0.0213371C61.4683 0.0298713 61.3787 0.0426727 61.2976 0.051207C61.2123 0.0640084 61.1269 0.0810766 61.0245 0.102412L60.9648 0.115213C60.8666 0.140816 60.777 0.162153 60.7002 0.187756C60.6191 0.213359 60.5338 0.243227 60.4399 0.281632L60.393 0.298701C60.2223 0.366975 60.0559 0.448051 59.898 0.541928L59.8596 0.563264C59.7742 0.614469 59.6974 0.661409 59.6249 0.712615C58.5069 1.47643 57.8412 2.73524 57.8412 4.0794V7.6382C57.8412 8.06918 58.1783 8.36361 58.6818 8.36361C59.1854 8.36361 59.5225 8.07345 59.5225 7.6382V4.09646C59.5225 3.87031 59.5438 3.67402 59.5907 3.49906C59.723 2.99554 60.0004 2.56029 60.393 2.23172C60.6917 1.98423 61.0544 1.80927 61.4342 1.73246C61.592 1.69833 61.7542 1.68552 61.9163 1.68552C62.0785 1.68552 62.2406 1.70259 62.3985 1.73246C62.8551 1.82634 63.2733 2.0525 63.6104 2.38534C63.636 2.41094 63.6573 2.44081 63.6787 2.46641C63.6957 2.48775 63.7085 2.50482 63.7256 2.52189C63.7469 2.54749 63.7683 2.57309 63.7939 2.60296C63.8067 2.62003 63.8238 2.6371 63.8408 2.65844C63.8664 2.68404 63.8878 2.70964 63.9091 2.73951C64.1779 3.13636 64.3187 3.59721 64.3187 4.07513V7.63393C64.3187 8.06491 64.6558 8.35935 65.1594 8.35935C65.6629 8.35935 66 8.06918 66 7.63393V4.07513C65.9957 2.73524 65.3301 1.47643 64.2121 0.712615Z" fill="url(#paint3_linear_8389_13217)"/>
<path d="M13.5866 0C11.2823 0 9.4048 1.87755 9.4048 4.18181C9.4048 6.48607 11.2823 8.36361 13.5866 8.36361C15.8909 8.36361 17.7684 6.48607 17.7684 4.18181C17.7684 1.87328 15.8909 0 13.5866 0ZM13.5866 6.63115C12.2339 6.63115 11.133 5.53023 11.133 4.17754C11.133 2.82485 12.2339 1.72393 13.5866 1.72393C14.9393 1.72393 16.0402 2.82485 16.0402 4.17754C16.0402 5.53449 14.9393 6.63115 13.5866 6.63115Z" fill="url(#paint4_linear_8389_13217)"/>
<path d="M8.19293 2.65844C7.62113 1.06679 6.07216 0 4.33543 0H4.24582C3.36678 0 2.52615 0.260297 1.81354 0.751019C0.678477 1.53617 0 2.81632 0 4.18181V10.9495C0 11.3976 0.345639 11.6963 0.866231 11.6963C1.38256 11.6963 1.7282 11.3976 1.7282 10.9495V7.54859L1.88181 7.65527C2.55602 8.11612 3.34118 8.36361 4.16047 8.36361C4.19461 8.36361 4.23301 8.36361 4.26715 8.36361C4.33969 8.36788 4.4037 8.36788 4.46771 8.36788C4.92856 8.36788 5.36381 8.28254 5.76065 8.12039C7.97104 7.19015 8.99515 4.89442 8.19293 2.65844ZM4.27995 6.63115C2.92726 6.63115 1.82634 5.53023 1.82634 4.17754C1.82634 2.82485 2.92726 1.72393 4.27995 1.72393C5.63264 1.72393 6.73356 2.82485 6.73356 4.17754C6.73356 5.53023 5.6369 6.63115 4.27995 6.63115Z" fill="url(#paint5_linear_8389_13217)"/>
<path d="M26.9001 2.65844C26.3283 1.06679 24.7793 0 23.0426 0H22.953C22.074 0 21.2333 0.260297 20.5207 0.751019C19.3857 1.53617 18.7072 2.81632 18.7072 4.18181V10.9495C18.7072 11.3976 19.0528 11.6963 19.5734 11.6963C20.0897 11.6963 20.4354 11.3976 20.4354 10.9495V7.54859L20.589 7.65527C21.2632 8.11612 22.0484 8.36361 22.8677 8.36361C22.9018 8.36361 22.9402 8.36361 22.9743 8.36361C23.0469 8.36788 23.1109 8.36788 23.1749 8.36788C23.6357 8.36788 24.071 8.28254 24.4678 8.12039C26.6782 7.19015 27.7023 4.89442 26.9001 2.65844ZM22.9871 6.63115C21.6344 6.63115 20.5335 5.53023 20.5335 4.17754C20.5335 2.82485 21.6344 1.72393 22.9871 1.72393C24.3398 1.72393 25.4407 2.82485 25.4407 4.17754C25.4407 5.53023 24.3441 6.63115 22.9871 6.63115Z" fill="url(#paint6_linear_8389_13217)"/>
<defs>
<linearGradient id="paint0_linear_8389_13217" x1="0" y1="5.84798" x2="65.9984" y2="5.84798" gradientUnits="userSpaceOnUse">
<stop stop-color="#9F4DFE"/>
<stop offset="0.2651" stop-color="#9559FE"/>
<stop offset="0.7445" stop-color="#7A79FE"/>
<stop offset="1" stop-color="#698DFE"/>
</linearGradient>
<linearGradient id="paint1_linear_8389_13217" x1="0" y1="5.84798" x2="65.9984" y2="5.84798" gradientUnits="userSpaceOnUse">
<stop stop-color="#9F4DFE"/>
<stop offset="0.2651" stop-color="#9559FE"/>
<stop offset="0.7445" stop-color="#7A79FE"/>
<stop offset="1" stop-color="#698DFE"/>
</linearGradient>
<linearGradient id="paint2_linear_8389_13217" x1="0" y1="5.84798" x2="65.9984" y2="5.84798" gradientUnits="userSpaceOnUse">
<stop stop-color="#9F4DFE"/>
<stop offset="0.2651" stop-color="#9559FE"/>
<stop offset="0.7445" stop-color="#7A79FE"/>
<stop offset="1" stop-color="#698DFE"/>
</linearGradient>
<linearGradient id="paint3_linear_8389_13217" x1="0" y1="5.84798" x2="65.9984" y2="5.84798" gradientUnits="userSpaceOnUse">
<stop stop-color="#9F4DFE"/>
<stop offset="0.2651" stop-color="#9559FE"/>
<stop offset="0.7445" stop-color="#7A79FE"/>
<stop offset="1" stop-color="#698DFE"/>
</linearGradient>
<linearGradient id="paint4_linear_8389_13217" x1="0" y1="5.84798" x2="65.9984" y2="5.84798" gradientUnits="userSpaceOnUse">
<stop stop-color="#9F4DFE"/>
<stop offset="0.2651" stop-color="#9559FE"/>
<stop offset="0.7445" stop-color="#7A79FE"/>
<stop offset="1" stop-color="#698DFE"/>
</linearGradient>
<linearGradient id="paint5_linear_8389_13217" x1="0" y1="5.84798" x2="65.9984" y2="5.84798" gradientUnits="userSpaceOnUse">
<stop stop-color="#9F4DFE"/>
<stop offset="0.2651" stop-color="#9559FE"/>
<stop offset="0.7445" stop-color="#7A79FE"/>
<stop offset="1" stop-color="#698DFE"/>
</linearGradient>
<linearGradient id="paint6_linear_8389_13217" x1="0" y1="5.84798" x2="65.9984" y2="5.84798" gradientUnits="userSpaceOnUse">
<stop stop-color="#9F4DFE"/>
<stop offset="0.2651" stop-color="#9559FE"/>
<stop offset="0.7445" stop-color="#7A79FE"/>
<stop offset="1" stop-color="#698DFE"/>
</linearGradient>
</defs>
</svg>
