<?xml version="1.0" encoding="UTF-8"?>
<svg id="uuid-2de70483-2d29-4a51-816e-ba92f397fb4d" data-name="레이어 1" xmlns="http://www.w3.org/2000/svg" viewBox="0 0 30.02 30.02">
  <defs>
    <style>
      .uuid-1efa9e0b-8a7c-4bad-b628-af87cc21bf29 {
        fill: none;
        stroke: #fff;
        stroke-miterlimit: 10;
      }
    </style>
  </defs>
  <line class="uuid-1efa9e0b-8a7c-4bad-b628-af87cc21bf29" x1="5.84" y1="22.55" x2="3.17" y2="22.55"/>
  <line class="uuid-1efa9e0b-8a7c-4bad-b628-af87cc21bf29" x1="21.97" y1="22.55" x2="9.97" y2="22.55"/>
  <path class="uuid-1efa9e0b-8a7c-4bad-b628-af87cc21bf29" d="M3.17,5.77H14.27v3.18h4.29c.97,0,1.83,.59,2.19,1.49l2.12,5.31h2.66c1.82,0,3.29,1.47,3.29,3.29v3.51h-2.72"/>
  <line class="uuid-1efa9e0b-8a7c-4bad-b628-af87cc21bf29" x1="10.89" y1="9.63" x2=".94" y2="9.63"/>
  <line class="uuid-1efa9e0b-8a7c-4bad-b628-af87cc21bf29" x1="10.89" y1="12.47" x2="2.43" y2="12.47"/>
  <line class="uuid-1efa9e0b-8a7c-4bad-b628-af87cc21bf29" x1="10.89" y1="15.11" x2="4.25" y2="15.11"/>
  <path class="uuid-1efa9e0b-8a7c-4bad-b628-af87cc21bf29" d="M9.97,22.55c0,1.14-.92,2.06-2.06,2.06s-2.06-.92-2.06-2.06,.92-2.06,2.06-2.06,2.06,.92,2.06,2.06"/>
  <path class="uuid-1efa9e0b-8a7c-4bad-b628-af87cc21bf29" d="M26.1,22.55c0,1.14-.92,2.06-2.06,2.06s-2.06-.92-2.06-2.06,.92-2.06,2.06-2.06,2.06,.92,2.06,2.06"/>
</svg>