<?xml version="1.0" encoding="UTF-8"?>
<svg id="uuid-8ef1dad5-b796-4107-920e-61bedebc27f1" data-name="레이어 1" xmlns="http://www.w3.org/2000/svg" viewBox="0 0 30.02 30.02">
  <defs>
    <style>
      .uuid-8720b6c6-d3d8-4d3d-a045-fbde077d212b {
        fill: #fff;
      }

      .uuid-8864b993-0213-4ffa-bdae-4c8042bc219a {
        fill: none;
        stroke: #fff;
        stroke-miterlimit: 10;
      }
    </style>
  </defs>
  <path class="uuid-8864b993-0213-4ffa-bdae-4c8042bc219a" d="M8.2,3.06V26.96c0,.46,.38,.84,.84,.84h3.01c.22,0,.44-.09,.6-.25l1.74-1.74c.33-.33,.86-.33,1.19,0l1.65,1.65c.16,.16,.37,.25,.6,.25h3.15c.46,0,.84-.38,.84-.84V3.06c0-.46-.38-.84-.84-.84h-3.07c-.22,0-.43,.09-.59,.24l-1.7,1.68c-.34,.34-.9,.32-1.22-.04l-1.4-1.59c-.16-.18-.39-.29-.63-.29h-3.31c-.46,0-.84,.38-.84,.84Z"/>
  <line class="uuid-8864b993-0213-4ffa-bdae-4c8042bc219a" x1="9.85" y1="19.35" x2="10.9" y2="19.35"/>
  <line class="uuid-8864b993-0213-4ffa-bdae-4c8042bc219a" x1="11.52" y1="19.35" x2="13.14" y2="19.35"/>
  <line class="uuid-8864b993-0213-4ffa-bdae-4c8042bc219a" x1="13.9" y1="19.35" x2="15.41" y2="19.35"/>
  <line class="uuid-8864b993-0213-4ffa-bdae-4c8042bc219a" x1="16.31" y1="19.35" x2="17.85" y2="19.35"/>
  <line class="uuid-8864b993-0213-4ffa-bdae-4c8042bc219a" x1="18.58" y1="19.35" x2="20.28" y2="19.35"/>
  <path class="uuid-8720b6c6-d3d8-4d3d-a045-fbde077d212b" d="M14.84,9.22l-1.43,4.62c-.04,.13,.11,.24,.23,.16l3.67-2.8c.11-.08,.05-.26-.09-.26h-4.47c-.14,0-.2,.17-.09,.26l3.63,2.8c.11,.09,.27-.02,.23-.16l-1.4-4.62c-.04-.14-.23-.14-.28,0Z"/>
</svg>