<?xml version="1.0" encoding="UTF-8"?>
<svg id="uuid-f1ec2c47-25d0-4e57-9f7e-39f634cd2cdf" data-name="레이어 1" xmlns="http://www.w3.org/2000/svg" viewBox="0 0 30.02 30.02">
  <defs>
    <style>
      .uuid-0fb0ca18-5574-4296-9b57-55725f3b2339 {
        stroke-width: .75px;
      }

      .uuid-0fb0ca18-5574-4296-9b57-55725f3b2339, .uuid-d3afd1f1-f565-419c-a9a3-07a98bffb2d6 {
        stroke-miterlimit: 10;
      }

      .uuid-0fb0ca18-5574-4296-9b57-55725f3b2339, .uuid-d3afd1f1-f565-419c-a9a3-07a98bffb2d6, .uuid-7af59fc9-c49f-48fc-9b8b-53469090bd91 {
        fill: none;
        stroke: #8467fd;
      }

      .uuid-7af59fc9-c49f-48fc-9b8b-53469090bd91 {
        stroke-linecap: round;
        stroke-linejoin: round;
        stroke-width: .5px;
      }
    </style>
  </defs>
  <path class="uuid-d3afd1f1-f565-419c-a9a3-07a98bffb2d6" d="M3.69,23.56l3.8-5.37c.28-.39,.72-.62,1.2-.62h7.64c.43,0,.84,.2,1.11,.55l.41,.54c.19,.25,.3,.56,.3,.87v.52c0,.29-.23,.52-.52,.52h-4.45"/>
  <path class="uuid-d3afd1f1-f565-419c-a9a3-07a98bffb2d6" d="M18.04,19.01l6.21-3.62c.4-.24,.92-.15,1.23,.2l.58,.66c.38,.43,.36,1.07-.04,1.47l-5.8,5.84c-.5,.5-1.15,.83-1.85,.92l-7.3,.98c-.56,.08-1.07,.37-1.41,.82l-1.16,1.53"/>
  <circle class="uuid-0fb0ca18-5574-4296-9b57-55725f3b2339" cx="16.09" cy="8.63" r="5.01"/>
  <circle class="uuid-0fb0ca18-5574-4296-9b57-55725f3b2339" cx="16.09" cy="8.7" r="6.48"/>
  <polyline class="uuid-7af59fc9-c49f-48fc-9b8b-53469090bd91" points="13.77 6.82 14.81 10.67 16.09 7.18 17.24 10.67 18.37 6.82"/>
  <line class="uuid-7af59fc9-c49f-48fc-9b8b-53469090bd91" x1="13.1" y1="8.26" x2="19.03" y2="8.26"/>
</svg>